<svg version="1.1" xmlns="http://www.w3.org/2000/svg" fill-rule="evenodd" clip-rule="evenodd" height="361" width="1024" viewBox="0 0 2899 1024"><path d="M340.736712 620.106099a31.143152 31.143152 0 0 1-41.302967-12.559369l-2.042173-4.492783-85.26076-187.165236a16.184228 16.184228 0 0 1-1.480576-6.586011 15.62263 15.62263 0 0 1 15.62263-15.62263 15.316304 15.316304 0 0 1 9.342946 3.114315l100.628118 71.476086a46.459456 46.459456 0 0 0 41.609293 4.748054l473.273797-210.650235c-84.852325-99.964412-224.639127-165.313976-382.907603-165.313976C209.731258 97.003259 0 272.017561 0 487.620069c0 117.424998 63.103173 223.515931 161.84228 295.043071a31.194206 31.194206 0 0 1 13.120967 25.527174 37.524945 37.524945 0 0 1-1.633739 10.210869l-21.136499 78.725803a46.867891 46.867891 0 0 0-2.501663 11.436174 15.62263 15.62263 0 0 0 15.62263 15.520522 17.562695 17.562695 0 0 0 9.036619-2.910098l102.568183-59.171988a49.012173 49.012173 0 0 1 24.863467-7.198663 47.072108 47.072108 0 0 1 13.784674 2.093228 554.3481 554.3481 0 0 0 153.163041 21.391771c258.692377 0 468.423634-174.75903 468.423635-390.361537a337.928723 337.928723 0 0 0-53.351793-180.885552l-539.389177 311.431517-3.420641 1.99112z" fill="#00B700"></path><path d="M1713.843376 441.262722h246.898823v20.881228h-246.898823zM1713.843376 510.798742h246.898823v22.617076h-246.898823zM1720.123061 727.5755h234.288399v-132.741302h-234.288399z m22.617076-112.319564h188.901084v91.234119h-188.901084zM1566.041042 517.742133l12.355151 21.391772q21.595989-31.960021 43.243032-71.884521v261.806692h22.617076V420.432548a752.387913 752.387913 0 0 0 36.605967-95.675846l-20.983337-12.099881a695.053881 695.053881 0 0 1-93.837889 205.085312zM1839.028635 369.990853zM1839.028635 369.990853l17.715859-10.210869c-3.471696-8.117641-18.328511-38.392869-22.923402-48.85901l-20.830174 12.048825c7.40288 13.937837 14.397326 27.875673 20.830174 41.762456a13.784674 13.784674 0 0 1 1.735848 5.105435h-146.066487v22.617076h297.340517v-22.463913h-147.802335zM1366.673816 351.764451h-20.830173v78.21526h-43.498304V318.732289H1281.464111v111.247422h-45.183097V351.764451h-20.881228v99.096488h151.27403V351.764451zM1222.394231 496.044036h133.864498v20.881228h-133.864498zM1375.302001 617.093893l-34.665902 29.764684v-84.699162h-113.034324v33.032163q5.105435 70.148673-34.614847 98.994379l12.048825 20.932282q48.603738-40.026608 45.132043-111.196368v-20.881228h69.587075v50.441695c-0.867924 17.103206-1.684793 22.821293-7.811315 31.245261l13.069913 22.617075q17.358478-13.937837 60.754673-52.075434zM1203.197797 325.726734l-19.553815-11.28301a370.756668 370.756668 0 0 1-78.062097 108.949976l12.508315 22.004424a442.334863 442.334863 0 0 0 85.107597-119.67139zM1180.631776 428.243863a465.258265 465.258265 0 0 1-81.125358 134.936639l12.09988 20.932283q20.421739-24.046597 39.516065-49.829043v194.772334h20.881228v-229.744562a596.774263 596.774263 0 0 0 28.998869-59.580423z" fill="#394144"></path><path d="M1452.8025 313.524745h-21.902315q-21.851261 102.108694-64.685858 172.257367l13.172022 22.872348 9.75138-19.502761q6.943391-12.150935 10.210869-19.14538 10.210869 92.153096 36.503859 146.015433-24.863467 43.089869-75.100945 87.762422l12.610424 21.698098q53.811282-50.441695 73.007716-86.79239a440.547961 440.547961 0 0 0 68.974423 88.221911l12.712532-22.055478c-29.662576-28.335163-55.393967-59.733586-69.53602-86.79239q38.188652-69.484966 46.918945-201.66467h24.352923v-21.187554h-98.89227c8.423967-25.37401 18.532728-55.700293 21.902315-81.686956z m32.011075 102.568183q-6.994446 111.298477-36.503858 175.5759-22.617076-57.385086-33.032162-154.745726a159.085345 159.085345 0 0 1 8.679239-20.881228zM2647.831601 500.689982c25.527174 37.984434 56.619271 90.008814 71.782412 120.028769l19.809087-12.661478c-15.316304-28.130945-46.969999-78.776858-72.70139-116.761291zM2388.322355 495.533492l-14.703652-9.853488-4.594891 0.918978h-119.2119V404.095157h180.885551v-22.514967h-180.885551V304.232854h-22.055478v77.347336H2047.279317v22.514967h180.426062v82.503825h-122.530433v22.055478a349.415951 349.415951 0 0 0 114.923336 135.038748c-54.270771 30.632608-118.241868 50.492749-184.101976 62.745792l6.432848 20.983337 0.459489 1.123195c70.403945-14.091 139.020987-36.554912 197.42716-70.761325 54.781314 34.206413 121.049857 57.180869 197.478214 68.923369l0.867924-1.53163 5.973359-19.655924c-70.863434-10.619304-132.230759-30.632608-183.795649-60.856782 55.240804-36.605967 99.913357-84.903379 127.482704-149.129748z m-257.262855 13.120968h224.639127c-25.527174 52.02438-65.809053 91.897825-115.076498 123.296248a321.182897 321.182897 0 0 1-109.562629-123.296248zM2600.453167 307.500332c-27.314076 73.773531-71.016597 144.636965-118.190813 192.474889l9.189782 23.84238c0 0.35738 0.510543 0.867924 0.663707 1.225304a466.38146 466.38146 0 0 0 55.649238-68.923368v271.915452h22.106532V421.453635a715.169294 715.169294 0 0 0 51.564891-107.214129z" fill="#394144"></path><path d="M2829.227696 410.170624V309.848832h-22.106532v100.321792h-192.832269v22.514967h192.832269v260.683496c0 10.772467-3.675913 13.580456-14.244163 14.499435-8.372913 0.408435-17.460587 2.399554-41.405075 2.552717V730.077163c32.623728 0 43.651467-0.35738 56.159782-3.931185 14.754706-3.726967 21.647043-11.231956 21.647043-33.287434v-260.37717h62.13314v-22.31075z" fill="#394144"></path></svg>